<svg width="148" height="66" viewBox="0 0 148 66" fill="none" xmlns="http://www.w3.org/2000/svg">
<rect opacity="0.3" width="148" height="66" rx="33" fill="#030F2F"/>
<g filter="url(#filter0_d_10631_12135)">
<path d="M48.8305 21.013H43.5433V53.7839H48.8305V21.013Z" fill="white"/>
<path d="M57.0987 32.7729H51.8115V53.7835H57.0987V32.7729Z" fill="white"/>
<path d="M73.5495 36.4837L69.6034 32.5067L65.6573 36.4837L69.6034 40.4607L73.5495 36.4837Z" fill="white"/>
<path d="M58.4255 24.7602L54.4794 20.7832L50.5333 24.7602L54.4794 28.7372L58.4255 24.7602Z" fill="white"/>
<path d="M40.5557 21.0118H35.2685V24.185C33.9942 23.5456 32.5588 23.1832 31.0387 23.1832C25.7911 23.1806 21.5217 27.4834 21.5217 32.7721C21.5217 35.082 22.336 37.2054 23.6921 38.8626H21.5217V44.1912H26.8089V41.3618C28.0832 42.0012 29.5186 42.3635 31.0387 42.3635C36.2863 42.3635 40.5557 38.0607 40.5557 32.7721C40.5557 30.2996 39.6225 28.0429 38.0918 26.3404H40.5557V21.0118ZM31.0387 37.0349C28.707 37.0349 26.8089 35.122 26.8089 32.7721C26.8089 30.4221 28.707 28.5092 31.0387 28.5092C33.3704 28.5092 35.2685 30.4221 35.2685 32.7721C35.2685 35.122 33.3704 37.0349 31.0387 37.0349Z" fill="white"/>
<path d="M31.0381 44.1912H26.8083V49.5198H31.0381C33.3697 49.5198 35.2678 51.4327 35.2678 53.7826H40.555C40.555 48.494 36.2856 44.1912 31.0381 44.1912Z" fill="white"/>
<path d="M69.6041 26.3416C71.1295 26.3416 72.6073 27.1702 73.3871 28.6968L73.596 28.4864L77.2098 24.8443C75.4253 22.4544 72.6126 21.013 69.6041 21.013C64.4438 21.013 60.2352 25.172 60.0951 30.338L60.0872 53.7839H65.3744V30.6018C65.3744 28.2519 67.2725 26.3389 69.6041 26.3389V26.3416Z" fill="white"/>
<path d="M73.5495 36.4837L69.6034 32.5067L65.6573 36.4837L69.6034 40.4607L73.5495 36.4837Z" fill="white"/>
<path d="M120.022 53.8259H117.218V32.6354H120.022V35.2219C121.02 33.321 122.702 32.2615 125.102 32.2615C129.371 32.2615 131.397 35.9698 131.397 40.5819C131.397 45.1939 129.371 48.9023 125.102 48.9023C122.702 48.9023 121.02 47.8427 120.022 45.9418V53.8259ZM120.022 39.2419V41.9219C120.022 44.6642 121.581 46.6586 124.385 46.6586C126.722 46.6586 128.436 45.1939 128.436 43.0437V38.12C128.436 35.9698 126.722 34.5052 124.385 34.5052C121.581 34.5052 120.022 36.4996 120.022 39.2419Z" fill="white"/>
<path d="M103.267 53.8259H100.463V32.6354H103.267V35.2219C104.265 33.321 105.947 32.2615 108.347 32.2615C112.616 32.2615 114.642 35.9698 114.642 40.5819C114.642 45.1939 112.616 48.9023 108.347 48.9023C105.947 48.9023 104.265 47.8427 103.267 45.9418V53.8259ZM103.267 39.2419V41.9219C103.267 44.6642 104.826 46.6586 107.63 46.6586C109.967 46.6586 111.681 45.1939 111.681 43.0437V38.12C111.681 35.9698 109.967 34.5052 107.63 34.5052C104.826 34.5052 103.267 36.4996 103.267 39.2419Z" fill="white"/>
<path d="M87.7844 48.9023C86.2262 48.9023 84.8862 48.4037 83.9825 47.4688C83.1723 46.6274 82.6737 45.4121 82.6737 44.1656C82.6737 41.6726 84.263 39.6782 87.4104 39.3977L92.5834 38.9303V37.6526C92.5834 35.1907 91.2434 34.5052 89.2802 34.5052C87.3169 34.5052 86.0081 35.3466 86.0081 37.3721H83.2035C83.2035 34.3805 85.9146 32.2615 89.3113 32.2615C92.7392 32.2615 95.3257 33.9442 95.3257 37.6838V46.1288H97.694V48.5283H92.9573L92.895 45.599H92.7704C91.8978 47.8427 90.1527 48.9023 87.7844 48.9023ZM88.5011 46.6586C91.0253 46.6586 92.5834 44.6642 92.5834 41.7972V41.0805L86.943 41.6102C85.79 41.7037 85.6341 42.2335 85.6341 43.1372V44.5395C85.6341 46.0041 86.7248 46.6586 88.5011 46.6586Z" fill="white"/>
<path d="M80.5279 45.1002V48.5281H77.1V45.1002H80.5279Z" fill="white"/>
</g>
<path d="M102.683 12.3401L100.874 9.09521H101.922L102.976 11.0436C103.015 11.1169 103.05 11.1852 103.079 11.2487C103.108 11.3122 103.138 11.3757 103.167 11.4392C103.191 11.3952 103.211 11.3537 103.225 11.3147C103.24 11.2756 103.257 11.2365 103.277 11.1975C103.301 11.1535 103.328 11.1022 103.357 11.0436L104.405 9.09521H105.423L103.621 12.3401V14.4497H102.683V12.3401Z" fill="white"/>
<path d="M97.1749 9.09521V14.4497H96.2373V9.09521H97.1749ZM98.3615 12.1717H96.8892V11.3806H98.3102C98.5691 11.3806 98.7668 11.3171 98.9036 11.1901C99.0403 11.0583 99.1087 10.8727 99.1087 10.6334C99.1087 10.4039 99.0378 10.2281 98.8962 10.106C98.7546 9.98397 98.5495 9.92292 98.2809 9.92292H96.8599V9.09521H98.3615C98.8938 9.09521 99.3113 9.22462 99.6141 9.48343C99.9168 9.74224 100.068 10.0963 100.068 10.5455C100.068 10.8678 99.9901 11.1389 99.8338 11.3586C99.6776 11.5735 99.4456 11.7297 99.1379 11.8274V11.7248C99.47 11.803 99.7215 11.9495 99.8924 12.1643C100.063 12.3792 100.149 12.6575 100.149 12.9994C100.149 13.3021 100.08 13.5634 99.9437 13.7831C99.807 13.998 99.6067 14.164 99.343 14.2812C99.0842 14.3935 98.7717 14.4497 98.4055 14.4497H96.8599V13.622H98.3615C98.6301 13.622 98.8352 13.5585 98.9768 13.4315C99.1184 13.3046 99.1892 13.1215 99.1892 12.8822C99.1892 12.6575 99.116 12.4842 98.9695 12.3621C98.8279 12.2351 98.6252 12.1717 98.3615 12.1717Z" fill="white"/>
<path d="M89.5954 14.4497H87.6689V9.09521H89.5441C90.0715 9.09521 90.5354 9.20997 90.9358 9.43948C91.3363 9.66411 91.6488 9.97908 91.8734 10.3844C92.1029 10.7848 92.2177 11.2512 92.2177 11.7834C92.2177 12.3059 92.1054 12.7699 91.8807 13.1752C91.661 13.5756 91.3534 13.8881 90.9578 14.1128C90.5671 14.3374 90.113 14.4497 89.5954 14.4497ZM88.6065 9.52738V14.0249L88.1597 13.5854H89.5075C89.864 13.5854 90.1716 13.5121 90.4304 13.3656C90.6892 13.2191 90.887 13.0116 91.0237 12.743C91.1605 12.4744 91.2288 12.1546 91.2288 11.7834C91.2288 11.4025 91.158 11.0778 91.0164 10.8092C90.8748 10.5358 90.6721 10.3258 90.4084 10.1793C90.1447 10.0328 89.8273 9.95955 89.4562 9.95955H88.1597L88.6065 9.52738Z" fill="white"/>
<path d="M86.0735 14.4497H82.748V9.09521H86.0735V9.95955H83.356L83.6856 9.65923V11.3366H85.8245V12.1643H83.6856V13.8857L83.356 13.5854H86.0735V14.4497Z" fill="white"/>
<path d="M78.1926 14.4497H77.255V9.09521H79.2986C79.9042 9.09521 80.3754 9.24171 80.7123 9.53471C81.0542 9.8277 81.2251 10.2379 81.2251 10.7653C81.2251 11.1218 81.1421 11.427 80.976 11.6809C80.8149 11.9299 80.5756 12.1204 80.2582 12.2522L81.2764 14.4497H80.2509L79.3426 12.45H78.1926V14.4497ZM78.1926 9.93025V11.6223H79.2986C79.5965 11.6223 79.8285 11.5466 79.9945 11.3952C80.1605 11.2438 80.2436 11.0339 80.2436 10.7653C80.2436 10.4967 80.1605 10.2916 79.9945 10.15C79.8285 10.0035 79.5965 9.93025 79.2986 9.93025H78.1926Z" fill="white"/>
<path d="M75.789 11.7688C75.789 12.3108 75.6792 12.7918 75.4594 13.2118C75.2397 13.6269 74.9345 13.9516 74.5438 14.186C74.1531 14.4204 73.7014 14.5376 73.1887 14.5376C72.6808 14.5376 72.2316 14.4204 71.8409 14.186C71.4503 13.9516 71.1451 13.6269 70.9253 13.2118C70.7105 12.7967 70.603 12.3182 70.603 11.7761C70.603 11.2292 70.7129 10.7482 70.9326 10.3331C71.1524 9.91317 71.4552 9.58599 71.8409 9.35159C72.2316 9.1172 72.6833 9 73.196 9C73.7088 9 74.158 9.1172 74.5438 9.35159C74.9345 9.58599 75.2397 9.91073 75.4594 10.3258C75.6792 10.7409 75.789 11.2219 75.789 11.7688ZM74.8075 11.7688C74.8075 11.3879 74.7416 11.0583 74.6097 10.7799C74.4779 10.5016 74.2923 10.2867 74.053 10.1354C73.8138 9.97909 73.5281 9.90096 73.196 9.90096C72.8689 9.90096 72.5832 9.97909 72.339 10.1354C72.0997 10.2867 71.9142 10.5016 71.7823 10.7799C71.6505 11.0583 71.5846 11.3879 71.5846 11.7688C71.5846 12.1497 71.6505 12.4818 71.7823 12.765C71.9142 13.0433 72.0997 13.2582 72.339 13.4096C72.5832 13.561 72.8689 13.6366 73.196 13.6366C73.5281 13.6366 73.8138 13.561 74.053 13.4096C74.2923 13.2533 74.4779 13.036 74.6097 12.7577C74.7416 12.4744 74.8075 12.1448 74.8075 11.7688Z" fill="white"/>
<path d="M65.6821 10.5895C65.6821 10.277 65.7627 10.0011 65.9239 9.76179C66.085 9.52251 66.3072 9.33694 66.5904 9.2051C66.8785 9.06837 67.2106 9 67.5866 9C67.948 9 68.2605 9.06348 68.5242 9.19045C68.7928 9.31741 69.0003 9.49809 69.1468 9.73249C69.2982 9.96688 69.3788 10.2452 69.3885 10.5675H68.4509C68.4412 10.338 68.3582 10.1598 68.2019 10.0328C68.0456 9.90096 67.8356 9.83504 67.572 9.83504C67.2838 9.83504 67.0519 9.90096 66.8761 10.0328C66.7052 10.1598 66.6197 10.3356 66.6197 10.5602C66.6197 10.7506 66.671 10.902 66.7735 11.0143C66.881 11.1218 67.047 11.2023 67.2716 11.2561L68.114 11.4465C68.573 11.5442 68.9148 11.7126 69.1395 11.9519C69.3641 12.1863 69.4764 12.5037 69.4764 12.9042C69.4764 13.2313 69.3958 13.5194 69.2347 13.7685C69.0736 14.0175 68.844 14.2104 68.5462 14.3472C68.2532 14.479 67.9089 14.5449 67.5134 14.5449C67.1373 14.5449 66.8077 14.4814 66.5245 14.3545C66.2413 14.2226 66.0191 14.0395 65.8579 13.8051C65.7017 13.5707 65.6187 13.2948 65.6089 12.9774H66.5465C66.5514 13.202 66.6393 13.3803 66.8102 13.5121C66.986 13.6391 67.2228 13.7026 67.5207 13.7026C67.8332 13.7026 68.0798 13.6391 68.2605 13.5121C68.4461 13.3803 68.5388 13.2069 68.5388 12.9921C68.5388 12.8065 68.49 12.66 68.3923 12.5526C68.2947 12.4402 68.136 12.3621 67.9162 12.3182L67.0665 12.1277C66.6124 12.0301 66.2681 11.8543 66.0337 11.6003C65.7993 11.3415 65.6821 11.0046 65.6821 10.5895Z" fill="white"/>
<path d="M60.8331 14.4497H59.9102V9.09521H60.8404L63.6239 13.307H63.3528V9.09521H64.2758V14.4497H63.3528L60.5621 10.2452H60.8331V14.4497Z" fill="white"/>
<path d="M58.4443 11.7688C58.4443 12.3108 58.3344 12.7918 58.1147 13.2118C57.8949 13.6269 57.5897 13.9516 57.1991 14.186C56.8084 14.4204 56.3567 14.5376 55.844 14.5376C55.3361 14.5376 54.8869 14.4204 54.4962 14.186C54.1055 13.9516 53.8003 13.6269 53.5806 13.2118C53.3657 12.7967 53.2583 12.3182 53.2583 11.7761C53.2583 11.2292 53.3682 10.7482 53.5879 10.3331C53.8077 9.91317 54.1104 9.58599 54.4962 9.35159C54.8869 9.1172 55.3386 9 55.8513 9C56.364 9 56.8133 9.1172 57.1991 9.35159C57.5897 9.58599 57.8949 9.91073 58.1147 10.3258C58.3344 10.7409 58.4443 11.2219 58.4443 11.7688ZM57.4628 11.7688C57.4628 11.3879 57.3969 11.0583 57.265 10.7799C57.1332 10.5016 56.9476 10.2867 56.7083 10.1354C56.469 9.97909 56.1834 9.90096 55.8513 9.90096C55.5241 9.90096 55.2385 9.97909 54.9943 10.1354C54.755 10.2867 54.5695 10.5016 54.4376 10.7799C54.3058 11.0583 54.2398 11.3879 54.2398 11.7688C54.2398 12.1497 54.3058 12.4818 54.4376 12.765C54.5695 13.0433 54.755 13.2582 54.9943 13.4096C55.2385 13.561 55.5241 13.6366 55.8513 13.6366C56.1834 13.6366 56.469 13.561 56.7083 13.4096C56.9476 13.2533 57.1332 13.036 57.265 12.7577C57.3969 12.4744 57.4628 12.1448 57.4628 11.7688Z" fill="white"/>
<path d="M49.2393 9.09521V14.4497H48.3018V9.09521H49.2393ZM50.4186 12.6038H49.0123V11.7688H50.2209C50.5432 11.7688 50.7873 11.6882 50.9534 11.5271C51.1243 11.361 51.2097 11.1315 51.2097 10.8385C51.2097 10.5455 51.1243 10.3209 50.9534 10.1646C50.7873 10.0084 50.5481 9.93025 50.2355 9.93025H48.9244V9.09521H50.4186C50.78 9.09521 51.0925 9.16846 51.3562 9.31496C51.6199 9.46146 51.825 9.66655 51.9715 9.93025C52.118 10.1891 52.1913 10.4943 52.1913 10.8459C52.1913 11.1877 52.118 11.4929 51.9715 11.7615C51.825 12.0252 51.6199 12.2327 51.3562 12.3841C51.0925 12.5306 50.78 12.6038 50.4186 12.6038Z" fill="white"/>
<path d="M43.0732 10.5895C43.0732 10.277 43.1538 10.0011 43.315 9.76179C43.4761 9.52251 43.6983 9.33694 43.9815 9.2051C44.2696 9.06837 44.6017 9 44.9777 9C45.3391 9 45.6516 9.06348 45.9153 9.19045C46.1839 9.31741 46.3914 9.49809 46.5379 9.73249C46.6893 9.96688 46.7699 10.2452 46.7796 10.5675H45.842C45.8323 10.338 45.7493 10.1598 45.593 10.0328C45.4367 9.90096 45.2268 9.83504 44.9631 9.83504C44.675 9.83504 44.443 9.90096 44.2672 10.0328C44.0963 10.1598 44.0108 10.3356 44.0108 10.5602C44.0108 10.7506 44.0621 10.902 44.1647 11.0143C44.2721 11.1218 44.4381 11.2023 44.6627 11.2561L45.5051 11.4465C45.9641 11.5442 46.306 11.7126 46.5306 11.9519C46.7552 12.1863 46.8675 12.5037 46.8675 12.9042C46.8675 13.2313 46.787 13.5194 46.6258 13.7685C46.4647 14.0175 46.2352 14.2104 45.9373 14.3472C45.6443 14.479 45.3 14.5449 44.9045 14.5449C44.5285 14.5449 44.1988 14.4814 43.9156 14.3545C43.6324 14.2226 43.4102 14.0395 43.249 13.8051C43.0928 13.5707 43.0098 13.2948 43 12.9774H43.9376C43.9425 13.202 44.0304 13.3803 44.2013 13.5121C44.3771 13.6391 44.6139 13.7026 44.9118 13.7026C45.2243 13.7026 45.4709 13.6391 45.6516 13.5121C45.8372 13.3803 45.9299 13.2069 45.9299 12.9921C45.9299 12.8065 45.8811 12.66 45.7835 12.5526C45.6858 12.4402 45.5271 12.3621 45.3073 12.3182L44.4576 12.1277C44.0035 12.0301 43.6592 11.8543 43.4248 11.6003C43.1904 11.3415 43.0732 11.0046 43.0732 10.5895Z" fill="white"/>
<defs>
<filter id="filter0_d_10631_12135" x="20.0869" y="19.3484" width="112.745" height="35.9123" filterUnits="userSpaceOnUse" color-interpolation-filters="sRGB">
<feFlood flood-opacity="0" result="BackgroundImageFix"/>
<feColorMatrix in="SourceAlpha" type="matrix" values="0 0 0 0 0 0 0 0 0 0 0 0 0 0 0 0 0 0 127 0" result="hardAlpha"/>
<feOffset/>
<feGaussianBlur stdDeviation="0.717391"/>
<feComposite in2="hardAlpha" operator="out"/>
<feColorMatrix type="matrix" values="0 0 0 0 0 0 0 0 0 0 0 0 0 0 0 0 0 0 0.25 0"/>
<feBlend mode="normal" in2="BackgroundImageFix" result="effect1_dropShadow_10631_12135"/>
<feBlend mode="normal" in="SourceGraphic" in2="effect1_dropShadow_10631_12135" result="shape"/>
</filter>
</defs>
</svg>
